<?xml version="1.0" encoding="UTF-8" standalone="no"?>
<!DOCTYPE svg PUBLIC "-//W3C//DTD SVG 1.1//EN" "http://www.w3.org/Graphics/SVG/1.1/DTD/svg11.dtd">
<svg width="100%" height="100%" viewBox="0 0 5906 5906" version="1.1" xmlns="http://www.w3.org/2000/svg" xmlns:xlink="http://www.w3.org/1999/xlink" xml:space="preserve" xmlns:serif="http://www.serif.com/" style="fill-rule:evenodd;clip-rule:evenodd;stroke-linecap:round;stroke-linejoin:round;stroke-miterlimit:1.5;">
    <g id="レイヤー11">
    </g>
    <g id="レイヤー2" transform="matrix(0.944887,0,0,0.944887,-1021.4,-328.966)">
        <g transform="matrix(1.05833,0,0,1.05833,1080.98,348.153)">
            <path d="M3965.78,3181.53C4048.68,2942.08 4093.66,2685.37 4093.66,2418.38C4093.66,1586.12 3656.54,853.765 2996.57,432.651C3001.11,425.96 3005.75,419.234 3010.48,412.474C3676.98,837.985 4118.4,1577.74 4118.4,2418.38C4118.4,2686.47 4073.5,2944.3 3990.73,3184.95C3982.5,3183.68 3974.18,3182.54 3965.78,3181.53Z" style="fill:rgb(235,235,235);stroke:rgb(235,235,235);stroke-width:41.67px;"/>
        </g>
        <g transform="matrix(1.05833,0,0,1.05833,1080.98,348.153)">
            <path d="M3647.47,3832.96C3206.51,4423.02 2496.99,4806.11 1697.46,4806.11C1537.89,4806.11 1381.91,4790.85 1230.93,4761.73C1235.21,4754.25 1239.6,4746.81 1244.09,4739.4C1390.91,4767.18 1542.48,4781.72 1697.46,4781.72C2481.25,4781.72 3177.65,4409.76 3614.95,3835.21C3625.06,3834.58 3635.93,3833.84 3647.47,3832.96Z" style="fill:rgb(235,235,235);stroke:rgb(235,235,235);stroke-width:41.67px;"/>
        </g>
    </g>
    <g transform="matrix(0.97134,0,0,1.5875,95.1786,-1843.5)">
        <g id="レイヤー4">
            <path d="M2943.52,3137.86C4344.24,3137.86 5481.45,3235.03 5481.45,3354.72C5481.45,3474.4 4344.24,3571.57 2943.52,3571.57C1542.8,3571.57 405.592,3474.4 405.592,3354.72C405.592,3235.03 1542.8,3137.86 2943.52,3137.86ZM2943.52,3137.86C4344.24,3137.86 5481.45,3235.03 5481.45,3354.72C5481.45,3474.4 4344.24,3571.57 2943.52,3571.57C1542.8,3571.57 405.592,3474.4 405.592,3354.72C405.592,3235.03 1542.8,3137.86 2943.52,3137.86Z" style="fill:rgb(235,235,235);stroke:rgb(235,235,235);stroke-width:63.32px;"/>
        </g>
    </g>
    <g transform="matrix(0.638675,0,0,1.04381,1068.87,-18.1589)">
        <g id="レイヤー41" serif:id="レイヤー4">
            <path d="M2943.52,3137.86C4344.24,3137.86 5481.45,3235.03 5481.45,3354.72C5481.45,3474.4 4344.24,3571.57 2943.52,3571.57C1542.8,3571.57 405.592,3474.4 405.592,3354.72C405.592,3235.03 1542.8,3137.86 2943.52,3137.86ZM2943.52,3137.86C4344.24,3137.86 5481.45,3235.03 5481.45,3354.72C5481.45,3474.4 4344.24,3571.57 2943.52,3571.57C1542.8,3571.57 405.592,3474.4 405.592,3354.72C405.592,3235.03 1542.8,3137.86 2943.52,3137.86Z" style="fill:rgb(235,235,235);stroke:rgb(235,235,235);stroke-width:96.31px;"/>
        </g>
    </g>
    <g transform="matrix(0.282498,0,0,0.461699,2099.29,1934.81)">
        <g id="レイヤー42" serif:id="レイヤー4">
            <path d="M2943.52,3137.86C4344.24,3137.86 5481.45,3235.03 5481.45,3354.72C5481.45,3474.4 4344.24,3571.57 2943.52,3571.57C1542.8,3571.57 405.592,3474.4 405.592,3354.72C405.592,3235.03 1542.8,3137.86 2943.52,3137.86ZM2943.52,3137.86C4344.24,3137.86 5481.45,3235.03 5481.45,3354.72C5481.45,3474.4 4344.24,3571.57 2943.52,3571.57C1542.8,3571.57 405.592,3474.4 405.592,3354.72C405.592,3235.03 1542.8,3137.86 2943.52,3137.86Z" style="fill:rgb(235,235,235);stroke:rgb(235,235,235);stroke-width:217.73px;"/>
        </g>
    </g>
    <g id="レイヤー21" serif:id="レイヤー2">
        <path d="M3022.76,409.558C4407.13,441.189 5521.1,1553.61 5521.1,2919.27C5521.1,4304.79 4374.47,5429.67 2962.15,5429.67C2295.29,5429.67 1687.66,5178.88 1232.01,4768.28C1236.43,4760.54 1240.79,4752.86 1245.11,4745.25C1696.61,5154.11 2299.86,5404.02 2962.15,5404.02C4360.04,5404.02 5494.96,4290.64 5494.96,2919.27C5494.96,1569.06 4394.81,468.941 3026.68,435.305C3025.35,426.751 3024.04,418.169 3022.76,409.558Z" style="fill:rgb(235,235,235);stroke:rgb(235,235,235);stroke-width:41.67px;"/>
    </g>
    <g transform="matrix(1,0,0,1,44.8876,-450.117)">
        <g id="レイヤー5">
            <g transform="matrix(1064.44,0,0,1064.44,3786.95,2259.77)">
            </g>
            <text x="1071.79px" y="2259.77px" style="font-family:'AcademyEngravedLetPlain', 'Academy Engraved LET';font-size:1064.44px;fill:white;">Moon</text>
        </g>
    </g>
    <g id="レイヤー6" transform="matrix(1,0,0,1,-174.414,-231.914)">
        <g transform="matrix(1064.44,0,0,1064.44,3342.68,3014.88)">
        </g>
        <text x="692.486px" y="3014.88px" style="font-family:'AcademyEngravedLetPlain', 'Academy Engraved LET';font-size:1064.44px;fill:white;">Bucks</text>
    </g>
</svg>
