<?xml version="1.0" encoding="UTF-8" standalone="no"?>
<!DOCTYPE svg PUBLIC "-//W3C//DTD SVG 1.1//EN" "http://www.w3.org/Graphics/SVG/1.1/DTD/svg11.dtd">
<svg width="100%" height="100%" viewBox="0 0 5906 5906" version="1.1" xmlns="http://www.w3.org/2000/svg" xmlns:xlink="http://www.w3.org/1999/xlink" xml:space="preserve" xmlns:serif="http://www.serif.com/" style="fill-rule:evenodd;clip-rule:evenodd;stroke-linecap:round;stroke-linejoin:round;stroke-miterlimit:1.5;">
    <g id="レイヤー11">
    </g>
    <g id="レイヤー13">
        <path d="M4334.94,2388.3C4282.64,1686.26 3884.26,964.627 3008.69,415.686" style="fill:none;stroke:rgb(235,235,235);stroke-width:208.33px;"/>
        <path d="M1235.35,4752.6C2426.7,5113.53 3478.25,4584.62 3997.47,3741.48" style="fill:none;stroke:rgb(235,235,235);stroke-width:208.33px;"/>
    </g>
    <g id="レイヤー4" transform="matrix(1,0,0,1.77894,136.999,-3189.93)">
        <g transform="matrix(0.97134,0,0,1.77348,14.0254,-2429.73)">
            <path d="M2943.52,3137.86C4344.24,3137.86 5481.45,3235.03 5481.45,3354.72C5481.45,3474.4 4344.24,3571.57 2943.52,3571.57C1542.8,3571.57 405.592,3474.4 405.592,3354.72C405.592,3235.03 1542.8,3137.86 2943.52,3137.86ZM2943.52,3137.86C4344.24,3137.86 5481.45,3235.03 5481.45,3354.72C5481.45,3474.4 4344.24,3571.57 2943.52,3571.57C1542.8,3571.57 405.592,3474.4 405.592,3354.72C405.592,3235.03 1542.8,3137.86 2943.52,3137.86Z" style="fill:rgb(235,235,235);stroke:rgb(235,235,235);stroke-width:89.25px;"/>
        </g>
        <g transform="matrix(0.282498,0,0,0.45707,2071.7,1989.21)">
            <g id="レイヤー41" serif:id="レイヤー4">
                <path d="M2943.52,3137.86C4344.24,3137.86 5481.45,3235.03 5481.45,3354.72C5481.45,3474.4 4344.24,3571.57 2943.52,3571.57C1542.8,3571.57 405.592,3474.4 405.592,3354.72C405.592,3235.03 1542.8,3137.86 2943.52,3137.86ZM2943.52,3137.86C4344.24,3137.86 5481.45,3235.03 5481.45,3354.72C5481.45,3474.4 4344.24,3571.57 2943.52,3571.57C1542.8,3571.57 405.592,3474.4 405.592,3354.72C405.592,3235.03 1542.8,3137.86 2943.52,3137.86Z" style="fill:rgb(235,235,235);stroke:rgb(235,235,235);stroke-width:342.28px;"/>
            </g>
        </g>
        <g transform="matrix(0.638675,0,0,1.09097,1008.49,-137.128)">
            <g id="レイヤー42" serif:id="レイヤー4">
                <path d="M2943.52,3137.86C4344.24,3137.86 5481.45,3235.03 5481.45,3354.72C5481.45,3474.4 4344.24,3571.57 2943.52,3571.57C1542.8,3571.57 405.592,3474.4 405.592,3354.72C405.592,3235.03 1542.8,3137.86 2943.52,3137.86ZM2943.52,3137.86C4344.24,3137.86 5481.45,3235.03 5481.45,3354.72C5481.45,3474.4 4344.24,3571.57 2943.52,3571.57C1542.8,3571.57 405.592,3474.4 405.592,3354.72C405.592,3235.03 1542.8,3137.86 2943.52,3137.86Z" style="fill:rgb(235,235,235);stroke:rgb(235,235,235);stroke-width:144.2px;"/>
            </g>
        </g>
    </g>
    <g id="レイヤー2">
        <path d="M3022.76,409.558C4407.13,441.189 5521.1,1553.61 5521.1,2919.27C5521.1,4304.79 4374.47,5429.67 2962.15,5429.67C2295.29,5429.67 1687.66,5178.88 1232.01,4768.28C1236.43,4760.54 1240.79,4752.86 1245.11,4745.25C1696.61,5154.11 2299.86,5404.02 2962.15,5404.02C4360.04,5404.02 5494.96,4290.64 5494.96,2919.27C5494.96,1569.06 4394.81,468.941 3026.68,435.305C3025.35,426.751 3024.04,418.169 3022.76,409.558Z" style="fill:rgb(235,235,235);stroke:rgb(235,235,235);stroke-width:208.33px;"/>
    </g>
</svg>
